<?xml version="1.0" standalone="yes"?>
<svg xmlns="http://www.w3.org/2000/svg" width="1128" height="180">
<path style="fill:#000000; stroke:none;" d="M57 111L56.142 112.671L54.8156 115.045L52.5756 119C51.017 121.686 49.3954 124.336 47.8002 127C46.4143 129.314 45.0332 131.63 43.7346 133.995L42.2199 136.84L41.7847 137.841L41.5401 138.329L41 140L42.6713 140.858L43.159 141.137L46.0247 142.707C47.667 143.584 49.3301 144.421 51 145.244L54 146.688C54.9876 147.135 55.9878 147.548 57 147.935C58.3179 148.44 59.6583 148.893 61 149.329C62.327 149.761 63.6538 150.202 65 150.572L67 151.105C68.3285 151.427 69.6615 151.719 71 151.996C71.9949 152.202 72.9962 152.403 74 152.561C74.9978 152.718 75.9939 152.836 77 152.925L80 153.166L84 153.715C84.9991 153.838 85.9944 153.917 87 153.961C88.3305 154.019 89.6686 154.007 91 153.999C92.6692 153.99 94.3365 153.989 96 153.83C97.0056 153.734 98.0016 153.57 99 153.421L101 153.13L104 152.725C106.013 152.4 108.024 152.03 110 151.522C112.04 150.997 114.047 150.335 116 149.547C117.703 148.86 119.362 148.067 121 147.24C122.717 146.373 124.432 145.486 126 144.363C127.801 143.072 129.394 141.547 130.957 139.985C132.19 138.752 133.347 137.418 134.363 136C135.479 134.44 136.392 132.734 137.204 131L138.073 129L138.452 128L139.073 126C139.321 125.006 139.549 124.015 139.699 123C139.944 121.34 139.97 119.674 139.996 118L140 115C139.998 113.002 140.04 110.99 139.826 109C139.645 107.307 139.286 105.642 138.841 104C138.379 102.294 137.827 100.611 137.096 99C136.627 97.9664 136.087 96.9827 135.521 96L134.892 95L133.471 93L132.671 92C131.795 90.9766 130.901 89.9789 129.96 89.0147C128.402 87.4195 126.764 85.8942 125 84.5285C123.726 83.5424 122.377 82.6612 121 81.8264C119.695 81.035 118.361 80.2955 117 79.6049C115.687 78.9386 114.345 78.3299 113 77.7315L110 76.4491L106 74.9498C104.325 74.3183 102.654 73.6748 101 72.9884C99.9945 72.5711 98.9852 72.1547 98 71.6906C96.3035 70.8913 94.6345 70.0505 93.0039 69.1235L91.044 67.8951L89.2284 66.4707L87.7469 64.8148L87.1983 63.9066L86.8009 62.9606L86.5818 61.9892L86.5463 61.0116L87.0718 59.1049L87.6188 58.2137L88.3218 57.3943L89.1489 56.6528L91.0193 55.4568L92.0046 55.0093L94 54.3943L96 54.1049L98 54.0193C99.6734 54.0164 101.345 54.0494 103 54.3256C104.358 54.5522 105.697 54.9176 107 55.3596C108.009 55.7018 109.012 56.0543 110 56.4529C111.359 57.0011 112.686 57.6215 114 58.2693C115.66 59.088 117.263 60.0387 118.985 60.7284C119.851 61.0756 120.855 61.3134 121.79 61.1219C122.702 60.935 123.5 60.3624 124.096 59.6636C125.311 58.2373 126.232 56.5961 127.2 54.9992L133.2 45L135.557 41.0015L136.586 39.0247L137.35 37.1605L137.771 35.6713L138 34L136.329 33.2716L135.841 32.9954L134.84 32.4846L133.955 31.9938C132.978 31.4727 132.002 30.9572 130.998 30.4884C130.014 30.0287 129.01 29.6074 128 29.2068C126.346 28.5503 124.682 27.9261 123 27.3441C120.691 26.5453 118.363 25.7785 116 25.1559C115.006 24.8941 114.007 24.6544 113 24.4498L110 23.9205C108.34 23.6408 106.677 23.332 105 23.1698C103.67 23.041 102.336 23.0157 101 23.0039L97 23L93 23.0008L90 23.0394C88.9947 23.0798 87.9978 23.1594 87 23.2894C85.9954 23.4202 84.9918 23.6022 84 23.8079C82.9962 24.0161 81.9936 24.2249 81 24.4784C79.6508 24.8226 78.3228 25.238 77 25.6713C75.314 26.2235 73.621 26.7891 72 27.5146C70.6213 28.1317 69.2933 28.8512 68 29.6304C66.9747 30.2482 65.9615 30.8954 65 31.6096C62.8575 33.2011 60.9093 35.0516 59.0934 37.0039C57.3773 38.8488 55.7856 40.8069 54.5324 43C53.6285 44.5817 52.938 46.2744 52.3627 48C51.8187 49.6314 51.3918 51.2906 51.1844 53C50.9834 54.6564 51.0088 56.3349 51.0008 58L51.0039 62C51.0157 63.3342 51.0309 64.6718 51.1736 66C51.356 67.6975 51.7325 69.3501 52.1597 71C52.4219 72.0128 52.7387 73.0251 53.1188 74L53.9954 76L54.5185 77L55.7106 79C57.2587 81.4565 59.0048 83.8013 61.0934 85.8264C62.8953 87.5735 64.923 89.0564 67 90.4552C67.9685 91.1075 68.992 91.6811 70 92.2685L72 93.409C72.9931 93.9634 73.9823 94.5219 75 95.0309C76.3103 95.6861 77.6579 96.2608 79 96.8465L83 98.5756C86.3343 99.975 89.7443 101.204 93 102.785L95 103.799L96 104.353L97.9961 105.637L98.9846 106.39L99.956 107.213L101.768 109.043L103.214 111.004L103.712 112.001L104.029 113L104.029 114.995L103.214 116.945L101.768 118.721L100.89 119.486L99.956 120.142L97.9961 121.106C95.7812 121.965 93.3397 121.978 91 121.995C88.9984 122.01 86.9803 121.999 85 121.675C83.6446 121.454 82.3173 121.084 81 120.702C79.3218 120.216 77.6469 119.721 76 119.136C73.9636 118.412 71.9706 117.577 70 116.691C68.6482 116.084 67.3212 115.412 66 114.742L62.0247 112.681L60.1605 111.816L59.159 111.486L58.6713 111.297L57 111M559 23.439L557 23.8048L555 24.2106L552 24.8951C549.288 25.5972 546.6 26.4029 544 27.4529C542.297 28.1408 540.642 28.9381 539 29.7593C537.305 30.6068 535.619 31.4773 534 32.4637C532.273 33.5159 530.612 34.6791 529 35.8997C525.113 38.8424 521.545 42.2143 518.468 46C516.673 48.2073 515.093 50.5724 513.615 53C512.429 54.948 511.289 56.9318 510.323 59C509.267 61.2645 508.452 63.6294 507.671 66C506.911 68.3041 506.183 70.627 505.668 73L505.285 75L504.729 79C504.539 80.3306 504.28 81.6591 504.17 83L504.039 85L504.001 89C504.001 90.3326 503.998 91.6698 504.09 93C504.205 94.6811 504.491 96.334 504.729 98C504.967 99.6671 505.143 101.345 505.461 103C505.983 105.72 506.805 108.373 507.671 111C508.224 112.68 508.788 114.361 509.453 116C510.72 119.125 512.285 122.138 514.066 125C515.134 126.718 516.266 128.409 517.518 130C519.193 132.13 521.077 134.083 523.004 135.985C523.982 136.951 524.964 137.923 526 138.826L528 140.532C528.982 141.308 529.969 142.069 531 142.779C531.974 143.45 532.973 144.077 534 144.663C535.306 145.407 536.656 146.078 538 146.752C539.969 147.738 541.947 148.734 544 149.536C545.954 150.3 547.971 150.849 550 151.37C551.655 151.796 553.318 152.232 555 152.537L557 152.841L560 153.155C561.67 153.356 563.326 153.671 565 153.83C566.663 153.989 568.331 153.991 570 153.998C570.998 154.003 572.002 154.004 573 153.961L575 153.83C576.339 153.679 577.667 153.465 579 153.271L583 152.725C585.014 152.414 587.025 152.027 589 151.522C590.689 151.09 592.349 150.553 594 149.996C596.033 149.31 598.054 148.585 600 147.677C602.068 146.712 604.052 145.571 606 144.385C607.01 143.77 608.026 143.151 609 142.48L611 141.076C612.373 140.041 613.719 138.979 614.996 137.826C616.005 136.916 616.961 135.958 617.91 134.985L618.826 133.996L620.535 132L622.1 130C622.835 129.011 623.561 128.018 624.254 127C625.143 125.694 625.981 124.355 626.792 123C627.578 121.69 628.346 120.367 629.029 119C629.52 118.019 629.969 117.015 630.384 116L631.564 113L632.254 111C632.69 109.687 633.026 108.34 633.37 107L633.87 105C634.107 104.004 634.356 103.009 634.536 102L634.83 100L635.166 96L635.714 92C635.878 90.6702 635.971 89.3403 635.971 88C635.971 87.0012 635.939 85.9936 635.83 85L635.155 80C634.996 78.6683 634.916 77.3267 634.714 76C634.459 74.3228 634.153 72.6519 633.764 71C633.527 69.9929 633.273 68.987 632.961 68C632.427 66.3117 631.828 64.6508 631.189 63C630.268 60.6213 629.308 58.2551 628.11 56C627.387 54.6384 626.599 53.3003 625.771 52C624.906 50.6427 624.03 49.2964 623.076 48C622.057 46.6161 620.973 45.281 619.826 44.0008C618.913 42.9806 617.953 42.0074 616.985 41.0394L614.999 39.1736L614 38.3002C612.725 37.1827 611.36 36.1691 610 35.159C608.71 34.201 607.372 33.2995 606 32.4637C604.381 31.4774 602.695 30.6068 601 29.7593C599.358 28.9381 597.703 28.1408 596 27.4529C592.45 26.019 588.741 25.0058 585 24.2106C583.345 23.8589 581.678 23.5075 580 23.2894C579.002 23.1597 578.005 23.0798 577 23.0394L574 23.0008L570 23L566 23.0008C564.665 23.0049 563.333 23.0167 562 23.0895C560.994 23.1445 559.995 23.2837 559 23.439M864 23.439L862 23.8048L860 24.2106L857 24.8951C854.288 25.5972 851.6 26.4029 849 27.4529C847.297 28.1408 845.642 28.9381 844 29.7593C842.305 30.6069 840.62 31.4772 839 32.4637C837.273 33.5159 835.612 34.6792 834 35.8997C830.113 38.8424 826.545 42.2143 823.468 46C821.673 48.2073 820.093 50.5723 818.615 53C817.429 54.9481 816.289 56.9319 815.323 59C814.266 61.2646 813.452 63.6293 812.671 66C811.911 68.3041 811.183 70.627 810.668 73L810.286 75L809.729 79C809.539 80.3305 809.28 81.6592 809.17 83L809.039 85L809.001 89C809.001 90.3326 808.998 91.6698 809.089 93C809.205 94.6811 809.491 96.334 809.729 98C809.967 99.6671 810.143 101.345 810.461 103C810.982 105.72 811.805 108.373 812.671 111C813.224 112.68 813.788 114.36 814.453 116C815.72 119.125 817.286 122.138 819.066 125C820.134 126.718 821.266 128.409 822.518 130C824.193 132.13 826.077 134.083 828.004 135.985C828.982 136.951 829.964 137.923 831 138.826L833 140.532C833.982 141.308 834.969 142.069 836 142.779C836.974 143.45 837.973 144.077 839 144.663C840.306 145.408 841.656 146.078 843 146.752C844.969 147.738 846.947 148.734 849 149.536C850.954 150.3 852.971 150.849 855 151.37C856.655 151.796 858.318 152.232 860 152.537L862 152.841L865 153.155C866.67 153.356 868.326 153.671 870 153.83C871.663 153.989 873.331 153.991 875 153.998C875.998 154.003 877.002 154.004 878 153.961L880 153.83C881.339 153.679 882.667 153.465 884 153.271L888 152.725C890.014 152.414 892.025 152.027 894 151.522C895.689 151.09 897.349 150.553 899 149.996C901.033 149.31 903.054 148.585 905 147.677C907.068 146.712 909.052 145.571 911 144.385C912.01 143.77 913.026 143.151 914 142.48L916 141.076C917.373 140.041 918.719 138.979 919.996 137.826C921.005 136.916 921.962 135.958 922.91 134.985L923.826 133.996L925.535 132L927.1 130C927.835 129.011 928.561 128.019 929.254 127C930.143 125.694 930.981 124.355 931.792 123C932.578 121.69 933.346 120.367 934.029 119C934.52 118.019 934.969 117.015 935.384 116L936.564 113L937.254 111C937.69 109.687 938.026 108.339 938.37 107L938.87 105C939.107 104.004 939.356 103.009 939.536 102C939.714 101.004 939.833 100.007 939.924 99L940.166 96L940.83 91C940.939 90.0064 940.971 88.9989 940.971 88C940.971 87.0011 940.939 85.9936 940.83 85L940.155 80C939.996 78.6683 939.916 77.3267 939.714 76C939.459 74.3228 939.153 72.6519 938.764 71C938.527 69.993 938.273 68.9869 937.961 68C937.427 66.3117 936.828 64.6508 936.189 63C935.268 60.6214 934.308 58.255 933.11 56C932.387 54.6384 931.599 53.3003 930.771 52C929.907 50.6428 929.03 49.2964 928.076 48C927.057 46.6162 925.973 45.281 924.826 44.0008C923.913 42.9806 922.953 42.0074 921.985 41.0394L919.999 39.1736L919 38.3002C917.725 37.1827 916.36 36.1691 915 35.159C913.71 34.201 912.372 33.2995 911 32.4637C909.381 31.4774 907.695 30.6068 906 29.7593C904.358 28.9382 902.703 28.1408 901 27.4529C897.45 26.019 893.741 25.0058 890 24.2106C888.345 23.8589 886.678 23.5074 885 23.2894C884.002 23.1597 883.005 23.0798 882 23.0394L879 23.0008L875 23L871 23.0008C869.665 23.0049 868.333 23.0167 867 23.0895C865.994 23.1445 864.995 23.2837 864 23.439M141 25L141 55L170 55L170 152L204 152L204 55L232 55L232 25L141 25M239 25L239 89L239 104L239.004 109C239.012 110.334 239.031 111.672 239.174 113C239.504 116.075 240.403 119.065 241.344 122L242.348 125C242.83 126.361 243.345 127.707 243.992 129C244.685 130.383 245.489 131.723 246.363 133C247.059 134.017 247.757 135.029 248.518 136C249.613 137.396 250.798 138.717 252.04 139.985C253.59 141.566 255.22 143.069 257 144.39C258.88 145.787 260.924 146.953 263 148.029C263.975 148.534 264.992 148.952 266 149.384L268 150.184L270 150.91C272.603 151.77 275.298 152.289 278 152.725L281 153.13C282.998 153.409 284.985 153.772 287 153.91C288.33 154.002 289.668 154.004 291 153.998L294 153.961L296 153.83C297.341 153.72 298.669 153.461 300 153.271L304 152.715C305.009 152.547 306.006 152.341 307 152.101C308.686 151.695 310.356 151.198 312 150.644C313.698 150.073 315.376 149.437 317 148.677C319.459 147.526 321.782 146.124 323.999 144.56C325.68 143.375 327.34 142.125 328.826 140.7C330.321 139.267 331.614 137.659 332.841 135.996C334.025 134.393 335.133 132.732 336.121 131C338.935 126.069 340.655 120.589 341.562 115L341.844 113L342.155 110C342.395 107.997 342.773 106.014 342.91 104C342.979 103.002 342.987 102 342.996 101L343 98L343 88L343 25L309 25L309 75L309 91L308.999 96C308.993 97.3353 308.979 98.6662 308.91 100L308.714 102L308.41 104L308.076 106C307.894 107.004 307.737 108.011 307.482 109C307.127 110.381 306.645 111.723 306 112.996C304.954 115.062 303.568 116.945 301.815 118.467L299.96 119.856L298.985 120.442L296.999 121.387L296 121.751L294 122.312L293 122.517L292 122.66L290 122.736L288 122.517L287 122.312L286 122.056L284 121.347L283.001 120.86L282.004 120.272L280.043 118.772L278.214 116.956L277.394 115.985L276.649 114.996L275.417 113L274.92 112L274.109 110L273.529 108L273.329 107L273.093 105C272.984 103.672 273.004 102.331 273.001 101L273 95L273 78L273 25L239 25M353 25L353 152L378 152L386 152L389 151.996C390 151.987 391.002 151.979 392 151.91C393.007 151.842 394.001 151.715 395 151.576L398 151.17C399.996 150.98 401.999 151.027 404 150.961C405.005 150.927 406.003 150.84 407 150.711C408.678 150.493 410.345 150.141 412 149.789C414.713 149.212 417.412 148.549 420 147.536C421.711 146.867 423.372 146.066 425 145.215C427.066 144.136 429.068 142.945 431 141.64C432.018 140.953 433.045 140.257 434 139.482L435.996 137.816C437.326 136.596 438.616 135.345 439.816 133.996C441.74 131.833 443.407 129.456 444.934 127C445.546 126.016 446.133 125.017 446.688 124C447.225 123.014 447.722 122.009 448.215 121C448.695 120.017 449.137 119.014 449.547 118C450.596 115.405 451.423 112.713 452.105 110C452.438 108.676 452.731 107.339 452.996 106C453.324 104.341 453.654 102.684 453.83 101L454.169 96L454.715 92C454.838 91.0021 454.925 90.0053 454.957 89C454.999 87.6707 454.975 86.323 454.83 85L454.166 80C453.988 78.3349 453.935 76.6609 453.711 75C453.485 73.3217 453.141 71.6557 452.789 70C452.432 68.3214 452.04 66.6515 451.572 65C451.094 63.3131 450.545 61.6475 449.946 60C449.457 58.6554 448.937 57.3196 448.384 56C447.96 54.9862 447.521 53.9781 447.019 53C445.938 50.8989 444.635 48.9149 443.254 47.0008C442.283 45.6558 441.256 44.3616 440.192 43.0895L438.561 41.2863C437.442 40.0879 436.202 38.9919 434.961 37.9236C433.996 37.0935 433.017 36.2794 431.999 35.5147C431.03 34.7862 430.031 34.1057 429 33.4676C427.393 32.4725 425.705 31.5987 424 30.7847C421.108 29.404 418.105 28.2768 415 27.4784C413.024 26.9703 411.013 26.5995 409 26.2747L406 25.8696C404.002 25.5912 402.015 25.2276 400 25.0895C399.002 25.0211 398 25.0127 397 25.0039L394 25L386 25L353 25M462 25L462 152L496 152L496 25L462 25M643 25L643 152L678 152L678 103L716 103L716 73L678 73L678 55L720 55L720 25L643 25M728 25L728 152L807 152L807 122L763 122L763 25L728 25M940 25L940.099 26.6713L940.301 28.1605C940.834 31.14 941.672 34.052 942.349 37L943.884 44C944.755 47.673 945.757 51.3145 946.576 55L947.884 61L950.116 70L951.884 78L954.116 87L955.884 95L958.349 105L959.424 110L960.374 114C961.032 116.666 961.734 119.323 962.349 122L963.424 127L964.374 131C965.032 133.666 965.734 136.323 966.349 139L967.424 144L968.536 148.84L968.71 149.841L968.813 150.329L969 152L1010 152L1010.33 150.329C1011.18 146.534 1012.22 142.784 1013.12 139L1014.88 131L1016.13 126L1017.87 119L1019.12 114L1020.65 107L1021.63 103L1022.87 98C1023.52 95.3975 1024.23 92.8028 1024.7 90.1605L1024.9 88.6713L1025 87L1025.91 88.6713L1026.51 90.1605C1027.05 91.7507 1027.46 93.3746 1027.87 95L1028.63 98C1029.21 100.331 1029.81 102.658 1030.35 105L1031.42 110L1032.37 114L1034.37 122L1035.12 125L1036.42 131L1037.37 135L1039.37 143C1039.86 144.939 1040.35 146.872 1040.7 148.84L1040.9 150.329L1041 152L1082 152L1082.33 150.329L1084.12 143L1085.88 135L1088.12 126L1089.65 119L1092.12 109L1093.88 101L1094.63 98L1096.37 91L1097.12 88L1098.65 81L1101.12 71L1102.88 63L1105.35 53L1106.88 46L1107.63 43L1109.37 36L1110.12 33L1111.2 28.1605L1112 25L1072 25L1071.96 26.6713L1071.83 28.1605C1071.67 29.4465 1071.46 30.7231 1071.25 32.0015L1070.41 37L1068.41 49L1066.59 60L1065.42 67L1064.58 73L1064.08 76L1062.75 84L1061.25 93L1060.75 95.9985C1060.54 97.277 1060.33 98.5534 1060.17 99.8395L1060.04 101.329L1060 103L1059.23 101.329L1058.7 99.8395C1057.99 97.5847 1057.47 95.2797 1056.85 93L1055.42 88L1053.85 82L1052.42 77L1050.85 71L1049.15 65L1047.58 59L1046.15 54L1045.12 50L1044 46L1042.88 42L1041.85 38L1040.15 32.0008C1039.88 31.0212 1039.65 30.0199 1039.32 29.0586L1038.98 28.1481L1038.57 27.3179L1037.44 26.0278C1036.72 25.4996 1035.81 25.2489 1034.94 25.1481C1033.3 24.9583 1031.65 25.0034 1030 25L1013 25L1012.67 26.6713L1012.33 28.1605L1011.57 31.0046L1010.42 35L1008.85 41L1007.42 46L1005.85 52L1004.15 58L1002.85 63L1001.42 68L999.849 74L998.424 79L996.849 85L995.151 91L994.113 94.9954L993.542 96.9414L992.851 98.679L992.335 99.483L992.116 99.9136L991 101L990.985 99.3287C990.96 98.5374 990.922 97.742 990.83 96.9552C990.676 95.6297 990.462 94.3166 990.246 93L989.414 88L987.414 76L984.92 61L981.92 43L979.92 31.0046L979.429 28.1605L979.276 27.159L979.183 26.6713L979 25L940 25M387 121L387 55C389.001 55.0055 391.011 54.9665 393.005 55.1705C394.012 55.2736 395.004 55.4422 396 55.6188L397 55.8194L399 56.3009L400 56.5988L402 57.3634C404.184 58.3316 406.187 59.6434 407.985 61.213C409.614 62.6355 411.102 64.2415 412.362 66.0008C413.04 66.9468 413.656 67.9583 414.175 69C414.665 69.9822 415.148 70.9717 415.535 72C415.909 72.991 416.259 73.9843 416.56 75C416.951 76.3182 417.263 77.6537 417.539 79C417.743 79.9913 417.859 80.9988 417.999 82L418.406 85C418.533 85.9985 418.66 86.991 418.66 88C418.661 89.0092 418.53 90.0008 418.409 91L418.154 93L418.05 94C417.9 95.336 417.802 96.6793 417.536 98C417.058 100.378 416.444 102.75 415.525 105C414.811 106.746 413.932 108.425 412.892 109.999C411.512 112.088 409.898 114.015 407.96 115.61C406.171 117.081 404.122 118.208 402 119.12C400.39 119.811 398.729 120.368 397 120.671C395.356 120.96 393.688 120.975 392.025 120.996L387 121M564 55.3256C565.981 54.9947 567.998 55.0015 570 55.0015C571.671 55.0015 573.336 55.0216 575 55.1844C576.012 55.2834 577.019 55.504 578 55.7639C580.467 56.4174 582.813 57.4539 585 58.7639C587.446 60.2291 589.762 61.9655 591.671 64.0934C593.011 65.5865 594.121 67.2657 595.12 69C595.684 69.9779 596.185 70.9842 596.676 72L597.536 74L597.91 75C598.279 75.9805 598.556 76.9933 598.841 78C599.212 79.3086 599.506 80.6537 599.7 82C600.034 84.3163 600.007 86.6654 599.999 89C599.993 91.0045 599.992 93.0121 599.699 95C599.345 97.4011 598.63 99.7362 597.768 102C597.116 103.712 596.39 105.412 595.471 107L594.2 109L593.468 109.999L592.671 110.996L590.907 112.957L589.96 113.895L588.985 114.787L586.999 116.363C586.05 117.045 585.036 117.659 584 118.2L583 118.722C581.693 119.353 580.381 119.949 579 120.402C578.016 120.725 577.009 120.952 576 121.181L574 121.56L572 121.826L571 121.896L570 121.921L568 121.826C566.655 121.674 565.324 121.463 564 121.181C562.996 120.968 561.976 120.747 561 120.427L559 119.731C557.626 119.164 556.274 118.559 555 117.786C552.815 116.461 550.866 114.794 549.093 112.96C546.303 110.073 543.997 106.724 542.475 103C541.946 101.704 541.508 100.356 541.159 99C540.734 97.3493 540.356 95.6977 540.174 94C539.995 92.3403 540.008 90.6667 540.001 89L540.004 86C540.031 84.3255 540.049 82.6569 540.326 81C540.553 79.6381 540.931 78.3107 541.36 77C541.69 75.9891 542.053 74.9852 542.454 74C543.01 72.6332 543.646 71.31 544.324 70L544.88 69L546.105 67.0039L547.529 65.0394L549.185 63.1736L550.093 62.3009L552.015 60.6836C552.973 59.9343 553.973 59.2627 555 58.6127L556 58.0463L558 57.1049L560 56.3634C561.317 55.9444 562.634 55.5538 564 55.3256M869 55.3256C870.981 54.9946 872.998 55.0015 875 55.0015C876.671 55.0015 878.336 55.0216 880 55.1844C881.012 55.2834 882.019 55.504 883 55.7639C885.467 56.4174 887.813 57.4538 890 58.7639C892.446 60.2291 894.762 61.9655 896.671 64.0934C898.011 65.5866 899.121 67.2658 900.12 69C900.684 69.9778 901.185 70.9843 901.676 72L902.536 74L902.91 75C903.279 75.9805 903.556 76.9933 903.841 78C904.212 79.3086 904.506 80.6537 904.7 82C905.034 84.3163 905.007 86.6653 904.999 89C904.993 91.0045 904.992 93.0122 904.699 95C904.345 97.4011 903.63 99.7362 902.768 102C902.116 103.712 901.39 105.412 900.471 107L899.2 109L898.468 109.999L897.671 110.996L895.907 112.957L894.96 113.895L893.985 114.787L891.999 116.363C891.05 117.045 890.036 117.66 889 118.2L888 118.722C886.693 119.353 885.381 119.949 884 120.402C883.016 120.725 882.009 120.952 881 121.181L879 121.56L877 121.826L876 121.896L875 121.921L873 121.826C871.655 121.674 870.324 121.463 869 121.181C867.996 120.968 866.976 120.747 866 120.427L864 119.731C862.626 119.164 861.274 118.559 860 117.786C857.815 116.461 855.866 114.794 854.093 112.96C851.303 110.073 848.997 106.724 847.475 103C846.946 101.704 846.508 100.356 846.159 99C845.734 97.3493 845.356 95.6978 845.174 94C844.995 92.3403 845.008 90.6667 845.001 89L845.004 86C845.031 84.3256 845.049 82.6568 845.326 81C845.553 79.6381 845.931 78.3107 846.36 77C846.69 75.9891 847.053 74.9852 847.454 74C848.01 72.6332 848.646 71.3099 849.324 70L849.88 69L851.105 67.0039L852.529 65.0394L854.185 63.1736L855.093 62.3009L857.015 60.6836C857.973 59.9343 858.973 59.2627 860 58.6127L861 58.0463L863 57.1049L865 56.3634C866.317 55.9443 867.634 55.5539 869 55.3256z"/>
<path style="fill:#08adba; stroke:none;" d="M870 71.6381L868.001 72.3673L867.004 72.8395L866.015 73.3673L864.105 74.6381C863.181 75.361 862.364 76.1837 861.638 77.1049C860.934 77.9977 860.351 78.9911 859.839 80.0039C859.197 81.2755 858.694 82.6067 858.39 84C858.034 85.6369 858.008 87.3319 858.008 89C858.008 90.6682 858.034 92.363 858.39 94C858.694 95.3933 859.197 96.7244 859.839 97.9961C860.351 99.0088 860.934 100.002 861.638 100.895C862.364 101.816 863.18 102.639 864.105 103.362L866.015 104.633L867.004 105.16L868.001 105.633L869 106.03L871 106.61C872.319 106.897 873.657 106.942 875 106.985L877 106.995C878.003 106.987 878.999 106.96 880 106.895L881 106.787L883 106.362L884.999 105.633L885.996 105.16L886.985 104.633L888.895 103.362C889.82 102.639 890.635 101.817 891.362 100.895C892.066 100.002 892.649 99.0089 893.161 97.9961C893.803 96.7244 894.306 95.3934 894.61 94C894.966 92.363 894.992 90.6682 894.992 89C894.992 87.3319 894.966 85.637 894.61 84C894.306 82.6067 893.803 81.2756 893.161 80.0039C892.649 78.991 892.066 77.9978 891.362 77.1049C890.635 76.1836 889.82 75.3612 888.895 74.6381L886.985 73.3673L885.996 72.8395L884.999 72.3673L884 71.9699L882 71.3904C880.681 71.1031 879.343 71.0584 878 71.0154L876 71.0046C874.997 71.013 874.001 71.0401 873 71.1049L872 71.213L870 71.6381z"/>
</svg>
